<svg width="100%" height="100%" viewBox="0 0 3840 2160" version="1.1" xmlns="http://www.w3.org/2000/svg" xmlns:xlink="http://www.w3.org/1999/xlink" xml:space="preserve" xmlns:serif="http://www.serif.com/" style="fill-rule:evenodd;clip-rule:evenodd;stroke-linejoin:round;stroke-miterlimit:2;">
	<g transform="matrix(12.605,0,0,12.605,3382.78,1080)">
		<g transform="matrix(1,0,0,1,-63.5,-59.5)">
			<g transform="matrix(0.483408,0,0,0.483408,-108.432,-119.851)">
				<g id="favicon">
					<g id="Logo-v5" serif:id="Logo v5">
						<g transform="matrix(1.81576,0,0,1.81576,-2228.94,-747.751)">
							<path d="M1410.45,665.217C1398.26,655.093 1387.08,642.077 1378.72,627.586C1372.57,616.931 1368.01,605.792 1364.96,594.442C1364.68,593.372 1364.84,592.235 1365.41,591.284C1365.97,590.333 1366.89,589.647 1367.97,589.38L1367.97,589.376C1369.61,588.967 1371.28,589.963 1371.69,591.605C1374.57,602.691 1378.97,613.575 1384.98,623.972C1392.8,637.525 1403.26,649.76 1414.62,659.284C1415.16,658.851 1415.73,658.455 1416.35,658.1C1422.7,654.43 1430.85,656.611 1434.52,662.968C1438.19,669.326 1436.01,677.467 1429.65,681.137C1423.29,684.807 1415.15,682.626 1411.48,676.269C1409.46,672.777 1409.21,668.748 1410.45,665.217ZM1417.74,672.654C1416.06,669.752 1417.06,666.036 1419.96,664.36C1422.86,662.685 1426.58,663.681 1428.26,666.583C1429.93,669.485 1428.94,673.201 1426.03,674.877C1423.13,676.553 1419.41,675.557 1417.74,672.654ZM1484.54,579.307C1481.87,594.927 1476.19,611.114 1467.82,625.605C1461.67,636.26 1454.3,645.778 1445.99,654.087C1445.21,654.865 1444.14,655.295 1443.04,655.282C1441.93,655.269 1440.88,654.813 1440.11,654.017L1440.1,654.02C1438.93,652.801 1438.96,650.86 1440.17,649.677C1448.33,641.642 1455.56,632.388 1461.56,621.991C1469.38,608.438 1474.75,593.263 1477.32,578.659C1476.67,578.412 1476.04,578.112 1475.43,577.758C1469.07,574.088 1466.89,565.947 1470.56,559.589C1474.23,553.232 1482.37,551.051 1488.73,554.721C1495.09,558.391 1497.27,566.532 1493.6,572.89C1491.58,576.381 1488.22,578.613 1484.54,579.307ZM1374.46,557.026C1389.33,551.531 1406.18,548.359 1422.92,548.359C1435.22,548.359 1447.15,549.981 1458.5,553.021C1459.57,553.313 1460.47,554.021 1461.01,554.985C1461.55,555.949 1461.69,557.09 1461.38,558.153L1461.38,558.155C1460.92,559.783 1459.22,560.728 1457.59,560.269C1446.55,557.217 1434.92,555.588 1422.92,555.588C1407.27,555.588 1391.44,558.528 1377.51,563.607C1377.62,564.287 1377.68,564.983 1377.68,565.692C1377.68,573.033 1371.72,578.993 1364.38,578.993C1357.04,578.993 1351.08,573.033 1351.08,565.692C1351.08,558.352 1357.04,552.392 1364.38,552.392C1368.41,552.392 1372.02,554.19 1374.46,557.026ZM1487.34,569.275C1485.66,572.178 1481.95,573.173 1479.04,571.498C1476.14,569.822 1475.15,566.106 1476.82,563.204C1478.5,560.301 1482.21,559.306 1485.12,560.981C1488.02,562.657 1489.01,566.373 1487.34,569.275ZM1364.38,559.621C1367.73,559.621 1370.45,562.341 1370.45,565.692C1370.45,569.044 1367.73,571.764 1364.38,571.764C1361.03,571.764 1358.3,569.044 1358.3,565.692C1358.3,562.341 1361.03,559.621 1364.38,559.621Z" style="fill:rgb(124,143,152);" />
						</g>
						<g transform="matrix(1,0,0,1,0,-13.1583)">
							<g transform="matrix(141.667,0,0,141.667,287.313,403.903)">
								<path d="M0.651,0.02L0.184,0.02C0.173,0.02 0.16,0.019 0.149,0.014C0.128,0.005 0.116,-0.006 0.107,-0.027C0.102,-0.037 0.1,-0.048 0.1,-0.059C0.099,-0.281 0.1,-0.48 0.1,-0.702L0.222,-0.508L0.222,-0.103L0.575,-0.103L0.651,0.02Z" style="fill:rgb(124,143,152);fill-rule:nonzero;" />
							</g>
							<g transform="matrix(141.667,0,0,141.667,270.534,382.851)">
								<path d="M0.962,0.169L0.822,0.169L0.629,-0.14L0.535,-0.14L0.459,-0.262L0.759,-0.262C0.785,-0.262 0.802,-0.268 0.818,-0.284C0.833,-0.299 0.839,-0.333 0.84,-0.358C0.84,-0.384 0.834,-0.41 0.818,-0.43C0.803,-0.447 0.788,-0.453 0.759,-0.453L0.34,-0.454L0.265,-0.575L0.759,-0.576C0.832,-0.574 0.884,-0.562 0.918,-0.526C0.954,-0.487 0.962,-0.432 0.962,-0.358C0.962,-0.284 0.955,-0.23 0.918,-0.188C0.88,-0.144 0.843,-0.14 0.77,-0.14L0.962,0.169Z" style="fill:rgb(124,143,152);fill-rule:nonzero;" />
							</g>
						</g>
					</g>
				</g>
			</g>
		</g>
	</g>
</svg>